<?xml version="1.0" encoding="utf-8"?><!-- Uploaded to: SVG Repo, www.svgrepo.com, Generator: SVG Repo Mixer Tools -->
<svg fill="#000000" width="800px" height="800px" viewBox="0 0 24 24" id="delete-file-2" data-name="Flat Line" xmlns="http://www.w3.org/2000/svg" class="icon flat-line"><path id="secondary" d="M18,21a1,1,0,0,0,1-1V4a1,1,0,0,0-1-1H9L5,7V20a1,1,0,0,0,1,1Z" style="fill: rgb(44, 169, 188); stroke-width: 2;"></path><line id="primary" x1="10.5" y1="10.5" x2="13.5" y2="13.5" style="fill: none; stroke: rgb(0, 0, 0); stroke-linecap: round; stroke-linejoin: round; stroke-width: 2;"></line><line id="primary-2" data-name="primary" x1="13.5" y1="10.5" x2="10.5" y2="13.5" style="fill: none; stroke: rgb(0, 0, 0); stroke-linecap: round; stroke-linejoin: round; stroke-width: 2;"></line><path id="primary-3" data-name="primary" d="M6,21a1,1,0,0,1-1-1V7L9,3h9a1,1,0,0,1,1,1V20a1,1,0,0,1-1,1Z" style="fill: none; stroke: rgb(0, 0, 0); stroke-linecap: round; stroke-linejoin: round; stroke-width: 2;"></path></svg>